HIERARCHY
ROOT Hips
{
  OFFSET 88.6906 37.1997 0.693295
  CHANNELS 6 Xposition Yposition Zposition Zrotation Xrotation Yrotation
  JOINT LeftHip
  {
    OFFSET 0.321227 0.387889 3.39282
    CHANNELS 6 Xposition Yposition Zposition Zrotation Xrotation Yrotation
    JOINT LeftKnee
    {
      OFFSET 2.48674 -16.6781 -7.53634
      CHANNELS 6 Xposition Yposition Zposition Zrotation Xrotation Yrotation
      JOINT LeftAnkle
      {
        OFFSET -0.0389695 -17.5351 3.83666
        CHANNELS 6 Xposition Yposition Zposition Zrotation Xrotation Yrotation
        End Site
        {
          OFFSET -0.474134 -3.06676 0.323404
        }
      }
    }
  }
  JOINT RightHip
  {
    OFFSET -0.414809 -0.585482 -3.35411
    CHANNELS 6 Xposition Yposition Zposition Zrotation Xrotation Yrotation
    JOINT RightKnee
    {
      OFFSET 3.09698 -17.8901 -3.3902
      CHANNELS 6 Xposition Yposition Zposition Zrotation Xrotation Yrotation
      JOINT RightAnkle
      {
        OFFSET 0.278209 -9.98205 14.9159
        CHANNELS 6 Xposition Yposition Zposition Zrotation Xrotation Yrotation
        End Site
        {
          OFFSET -0.448056 -1.52447 2.68508
        }
      }
    }
  }
  JOINT Chest
  {
    OFFSET -0.631815 4.47129 -0.702355
    CHANNELS 6 Xposition Yposition Zposition Zrotation Xrotation Yrotation
    JOINT CS_BVH
    {
      OFFSET -0.420698 6.32045 1.74353
      CHANNELS 6 Xposition Yposition Zposition Zrotation Xrotation Yrotation
      JOINT LeftCollar
      {
        OFFSET -1.96822 3.94255 1.53615
        CHANNELS 6 Xposition Yposition Zposition Zrotation Xrotation Yrotation
        JOINT LeftShoulder
        {
          OFFSET 0.491877 0.269123 5.78288
          CHANNELS 6 Xposition Yposition Zposition Zrotation Xrotation Yrotation
          JOINT LeftElbow
          {
            OFFSET 0.4712 1.41544 11.9875
            CHANNELS 6 Xposition Yposition Zposition Zrotation Xrotation Yrotation
            JOINT LeftWrist
            {
              OFFSET 0.559239 -2.95593 9.34784
              CHANNELS 6 Xposition Yposition Zposition Zrotation Xrotation Yrotation
              End Site
              {
                OFFSET 0.419714 -2.21845 7.01564
              }
            }
          }
        }
      }
      JOINT RightCollar
      {
        OFFSET -1.61819 4.34595 -0.52102
        CHANNELS 6 Xposition Yposition Zposition Zrotation Xrotation Yrotation
        JOINT RightShoulder
        {
          OFFSET 0.67378 1.73903 -5.76588
          CHANNELS 6 Xposition Yposition Zposition Zrotation Xrotation Yrotation
          JOINT RightElbow
          {
            OFFSET 6.49668 -1.88868 -8.77453
            CHANNELS 6 Xposition Yposition Zposition Zrotation Xrotation Yrotation
            JOINT RightWrist
            {
              OFFSET 6.67255 1.63426 -7.01703
              CHANNELS 6 Xposition Yposition Zposition Zrotation Xrotation Yrotation
              End Site
              {
                OFFSET 4.85154 1.18825 -5.102
              }
            }
          }
        }
      }
      JOINT Neck
      {
        OFFSET 0.00110435 3.98902 0.700157
        CHANNELS 6 Xposition Yposition Zposition Zrotation Xrotation Yrotation
        JOINT Head
        {
          OFFSET -1.34279 4.97738 0.598915
          CHANNELS 6 Xposition Yposition Zposition Zrotation Xrotation Yrotation
          End Site
          {
            OFFSET 0 4.14001 0
          }
        }
      }
    }
  }
}
MOTION
Frames:	11
Frame Time:	0.0333333
2.77224 38.2493 -2.09085 -6.93065 1.59657 89.5694 0.321227 0.387889 3.39282 -0.515464 -7.4845 30.9935 2.48674 -16.6781 -7.53634 8.09919 27.4584 26.1086 -0.0389695 -17.5351 3.83666 -1.63755 -5.21916 -0.336545 -0.414809 -0.585482 -3.35411 1.36996 -36.6724 68.6611 3.09698 -17.8901 -3.3902 10.424 5.01793 -74.8526 0.278209 -9.98205 14.9159 11.0562 -0.0568249 -0.619953 -0.631815 4.47129 -0.702355 -15.6045 -17.8445 -7.45366 -0.420698 6.32045 1.74353 11.1129 7.20401 -8.17892 -1.96822 3.94255 1.53615 3.38478 -1.70907 -9.31419 0.491877 0.269123 5.78288 17.1344 3.69681 -29.7019 0.4712 1.41544 11.9875 35.3008 -60.5603 17.1181 0.559239 -2.95593 9.34784 9.44593e-010 3.10263e-010 1.53874e-009 -1.61819 4.34595 -0.52102 1.84061 -0.321109 6.54556 0.67378 1.73903 -5.76588 -45.002 26.8088 67.8192 6.49668 -1.88868 -8.77453 -63.8404 -49.0411 -53.1993 6.67255 1.63426 -7.01703 3.6937e-010 1.6659e-009 -1.69979e-009 0.00110435 3.98902 0.700157 9.83434 -6.20025 9.39703 -1.34279 4.97738 0.598915 11.9616 23.63 8.16296 
4.47602 38.0898 -1.88737 -7.7045 1.59285 90.1185 0.321227 0.387889 3.39282 -0.114146 -5.80152 30.5611 2.48674 -16.6781 -7.53634 8.14276 27.5531 26.0779 -0.0389695 -17.5351 3.83666 -1.15763 -4.76753 -0.287834 -0.414809 -0.585482 -3.35411 2.1337 -36.9598 68.5151 3.09698 -17.8901 -3.3902 6.61659 4.8646 -75.6098 0.278209 -9.98205 14.9159 11.432 -0.0195012 -0.604408 -0.631815 4.47129 -0.702355 -16.3218 -18.9406 -8.06242 -0.420698 6.32045 1.74353 11.9512 7.83358 -8.80018 -1.96822 3.94255 1.53615 3.59971 -1.72317 -9.4733 0.491877 0.269123 5.78288 16.9049 3.49555 -29.4327 0.4712 1.41544 11.9875 36.2591 -60.3734 17.8135 0.559239 -2.95593 9.34784 9.44593e-010 3.10263e-010 1.53874e-009 -1.61819 4.34595 -0.52102 1.88059 -0.303929 6.37617 0.67378 1.73903 -5.76588 -45.0558 26.7707 67.8399 6.49668 -1.88868 -8.77453 -63.5765 -49.1988 -53.0377 6.67255 1.63426 -7.01703 3.6937e-010 1.6659e-009 -1.69979e-009 0.00110435 3.98902 0.700157 9.75716 -5.9932 9.25176 -1.34279 4.97738 0.598915 12.1659 23.5017 7.94369 
6.25132 37.8246 -1.65638 -8.2412 1.49581 90.3524 0.321227 0.387889 3.39282 0.366828 -4.37788 29.7976 2.48674 -16.6781 -7.53634 8.85546 28.7082 25.6366 -0.0389695 -17.5351 3.83666 -0.726203 -4.15322 -0.253325 -0.414809 -0.585482 -3.35411 2.59106 -37.0802 70.9042 3.09698 -17.8901 -3.3902 9.80464 4.73924 -76.1581 0.278209 -9.98205 14.9159 11.3746 0.145906 -0.649552 -0.631815 4.47129 -0.702355 -16.1791 -19.2624 -8.11619 -0.420698 6.32045 1.74353 12.3995 8.18159 -9.08094 -1.96822 3.94255 1.53615 3.43031 -1.70855 -9.35568 0.491877 0.269123 5.78288 16.6288 4.11678 -29.3454 0.4712 1.41544 11.9875 36.0996 -60.3318 17.7215 0.559239 -2.95593 9.34784 9.44593e-010 3.10263e-010 1.53874e-009 -1.61819 4.34595 -0.52102 1.91852 -0.285426 6.18769 0.67378 1.73903 -5.76588 -45.1331 26.4047 68.107 6.49668 -1.88868 -8.77453 -63.7067 -49.2037 -53.1832 6.67255 1.63426 -7.01703 3.6937e-010 1.6659e-009 -1.69979e-009 0.00110435 3.98902 0.700157 9.79958 -6.31357 9.14935 -1.34279 4.97738 0.598915 12.5318 23.7915 7.66348 
8.12769 37.5855 -1.37551 -8.23032 0.879052 90.371 0.321227 0.387889 3.39282 1.5208 -2.60264 29.0224 2.48674 -16.6781 -7.53634 9.70743 30.2647 24.8496 -0.0389695 -17.5351 3.83666 -0.00392424 -3.27871 -0.206803 -0.414809 -0.585482 -3.35411 3.71594 -36.144 72.194 3.09698 -17.8901 -3.3902 14.0615 4.50452 -75.5442 0.278209 -9.98205 14.9159 11.1294 0.390596 -0.735996 -0.631815 4.47129 -0.702355 -14.7992 -19.1524 -7.72663 -0.420698 6.32045 1.74353 12.4416 8.78725 -9.11017 -1.96822 3.94255 1.53615 3.1004 -1.68891 -9.21548 0.491877 0.269123 5.78288 15.6898 6.04761 -29.0467 0.4712 1.41544 11.9875 35.4552 -60.3747 17.2826 0.559239 -2.95593 9.34784 9.44593e-010 3.10263e-010 1.53874e-009 -1.61819 4.34595 -0.52102 2.01773 -0.281536 6.22794 0.67378 1.73903 -5.76588 -45.2198 26.0766 68.4816 6.49668 -1.88868 -8.77453 -64.1806 -48.9704 -53.5496 6.67255 1.63426 -7.01703 3.6937e-010 1.6659e-009 -1.69979e-009 0.00110435 3.98902 0.700157 9.87073 -6.15626 8.99664 -1.34279 4.97738 0.598915 12.5835 23.4584 7.56001 
9.91657 37.5162 -1.12176 -8.36015 -0.770002 89.8388 0.321227 0.387889 3.39282 3.96181 -2.40611 27.5519 2.48674 -16.6781 -7.53634 10.1374 33.7855 25.3359 -0.0389695 -17.5351 3.83666 0.888853 -2.4504 -0.132031 -0.414809 -0.585482 -3.35411 6.35286 -36.3143 71.0513 3.09698 -17.8901 -3.3902 14.8384 7.02127 -72.2335 0.278209 -9.98205 14.9159 10.8737 -0.215748 -0.603825 -0.631815 4.47129 -0.702355 -10.4522 -19.7033 -6.75277 -0.420698 6.32045 1.74353 11.0436 10.5429 -8.24666 -1.96822 3.94255 1.53615 2.23521 -1.60453 -8.53612 0.491877 0.269123 5.78288 14.6333 7.70993 -28.3388 0.4712 1.41544 11.9875 32.2279 -60.1007 15.0407 0.559239 -2.95593 9.34784 9.44593e-010 3.10263e-010 1.53874e-009 -1.61819 4.34595 -0.52102 2.25731 -0.247356 6.01942 0.67378 1.73903 -5.76588 -45.0684 25.1888 68.1543 6.49668 -1.88868 -8.77453 -63.9499 -49.1407 -53.4022 6.67255 1.63426 -7.01703 3.6937e-010 1.6659e-009 -1.69979e-009 0.00110435 3.98902 0.700157 9.44779 -7.01372 8.8829 -1.34279 4.97738 0.598915 13.6314 23.2235 6.79887 
11.9024 37.3528 -0.946053 -8.73609 -3.05835 88.4084 0.321227 0.387889 3.39282 7.50361 -4.84352 26.2127 2.48674 -16.6781 -7.53634 11.077 41.2004 27.6617 -0.0389695 -17.5351 3.83666 0.951592 -1.95362 -0.0952065 -0.414809 -0.585482 -3.35411 8.42502 -37.4946 70.8567 3.09698 -17.8901 -3.3902 24.9023 7.69206 -67.4272 0.278209 -9.98205 14.9159 8.98822 -2.06517 -0.265842 -0.631815 4.47129 -0.702355 -3.54295 -20.835 -5.18436 -0.420698 6.32045 1.74353 7.46593 12.1043 -6.17763 -1.96822 3.94255 1.53615 1.56219 -1.56366 -8.16451 0.491877 0.269123 5.78288 12.5216 10.1551 -25.9236 0.4712 1.41544 11.9875 25.6234 -58.7017 10.5669 0.559239 -2.95593 9.34784 9.44593e-010 3.10263e-010 1.53874e-009 -1.61819 4.34595 -0.52102 2.86207 -0.201704 5.98306 0.67378 1.73903 -5.76588 -45.0292 24.0143 67.364 6.49668 -1.88868 -8.77453 -62.195 -50.0596 -52.2001 6.67255 1.63426 -7.01703 3.6937e-010 1.6659e-009 -1.69979e-009 0.00110435 3.98902 0.700157 9.96806 -6.1495 8.29433 -1.34279 4.97738 0.598915 13.9014 23.0233 6.42061 
13.7421 37.309 -0.764641 -8.14954 -4.99845 86.735 0.321227 0.387889 3.39282 10.7653 -8.52775 25.4916 2.48674 -16.6781 -7.53634 12.8132 50.2805 28.384 -0.0389695 -17.5351 3.83666 1.50005 -1.0799 -0.0429726 -0.414809 -0.585482 -3.35411 9.5759 -36.8974 69.7971 3.09698 -17.8901 -3.3902 31.0582 7.70501 -67.2499 0.278209 -9.98205 14.9159 7.55024 -3.51809 0.0462384 -0.631815 4.47129 -0.702355 1.60137 -18.8276 -3.38126 -0.420698 6.32045 1.74353 5.98277 10.8809 -4.4888 -1.96822 3.94255 1.53615 0.625201 -1.48633 -7.37959 0.491877 0.269123 5.78288 9.2764 12.6191 -21.4604 0.4712 1.41544 11.9875 15.6925 -54.8548 4.34681 0.559239 -2.95593 9.34784 9.44593e-010 3.10263e-010 1.53874e-009 -1.61819 4.34595 -0.52102 1.98697 -0.357026 7.1139 0.67378 1.73903 -5.76588 -44.3265 23.442 67.2382 6.49668 -1.88868 -8.77453 -60.6231 -50.8218 -51.1625 6.67255 1.63426 -7.01703 3.6937e-010 1.6659e-009 -1.69979e-009 0.00110435 3.98902 0.700157 8.92284 -3.06823 8.02016 -1.34279 4.97738 0.598915 15.2348 22.3885 5.54409 
15.5536 37.1513 -0.568016 -7.02515 -6.47318 85.8279 0.321227 0.387889 3.39282 12.9143 -12.7521 25.2972 2.48674 -16.6781 -7.53634 18.9504 59.6592 23.8795 -0.0389695 -17.5351 3.83666 2.33738 -0.151738 -0.000599604 -0.414809 -0.585482 -3.35411 11.6268 -34.4392 68.6801 3.09698 -17.8901 -3.3902 33.859 9.59953 -67.1483 0.278209 -9.98205 14.9159 7.44135 -5.16326 0.279425 -0.631815 4.47129 -0.702355 5.39275 -16.4071 -2.04353 -0.420698 6.32045 1.74353 4.65696 9.87556 -2.84204 -1.96822 3.94255 1.53615 0.167989 -1.43283 -6.79157 0.491877 0.269123 5.78288 6.30077 13.6431 -15.4358 0.4712 1.41544 11.9875 5.23848 -47.7602 -1.10429 0.559239 -2.95593 9.34784 9.44593e-010 3.10263e-010 1.53874e-009 -1.61819 4.34595 -0.52102 1.51183 -0.458361 7.83803 0.67378 1.73903 -5.76588 -44.0966 22.0168 68.1076 6.49668 -1.88868 -8.77453 -61.1735 -50.6493 -51.7127 6.67255 1.63426 -7.01703 3.6937e-010 1.6659e-009 -1.69979e-009 0.00110435 3.98902 0.700157 7.93415 -0.660937 7.77308 -1.34279 4.97738 0.598915 16.1586 21.5139 4.81306 
17.3971 37.067 -0.333857 -6.31508 -8.06067 85.8228 0.321227 0.387889 3.39282 14.9437 -18.0715 25.9654 2.48674 -16.6781 -7.53634 31.4704 66.5298 14.3124 -0.0389695 -17.5351 3.83666 3.19541 0.722401 0.0345865 -0.414809 -0.585482 -3.35411 14.2748 -31.8485 69.01 3.09698 -17.8901 -3.3902 35.9657 11.8951 -67.2885 0.278209 -9.98205 14.9159 7.76253 -7.0837 0.553342 -0.631815 4.47129 -0.702355 8.26834 -15.3436 -1.16335 -0.420698 6.32045 1.74353 4.19121 9.71331 -1.77204 -1.96822 3.94255 1.53615 -0.215663 -1.4076 -6.40595 0.491877 0.269123 5.78288 3.82612 13.9888 -8.71046 0.4712 1.41544 11.9875 -1.53627 -39.0662 -3.19857 0.559239 -2.95593 9.34784 9.44593e-010 3.10263e-010 1.53874e-009 -1.61819 4.34595 -0.52102 0.457103 -0.592548 8.2754 0.67378 1.73903 -5.76588 -43.797 19.9602 69.1574 6.49668 -1.88868 -8.77453 -62.2885 -50.079 -52.6582 6.67255 1.63426 -7.01703 3.6937e-010 1.6659e-009 -1.69979e-009 0.00110435 3.98902 0.700157 5.94571 -0.120722 7.84078 -1.34279 4.97738 0.598915 17.1844 21.2395 3.74392 
19.3276 37.1103 -0.159312 -6.3869 -8.76809 85.8406 0.321227 0.387889 3.39282 16.337 -23.8738 26.6182 2.48674 -16.6781 -7.53634 42.8015 69.9782 6.6737 -0.0389695 -17.5351 3.83666 3.88198 1.34452 0.0676381 -0.414809 -0.585482 -3.35411 15.7448 -29.643 69.6495 3.09698 -17.8901 -3.3902 37.1511 13.3531 -69.4596 0.278209 -9.98205 14.9159 8.77457 -9.02746 0.929437 -0.631815 4.47129 -0.702355 10.1693 -16.3191 -0.522686 -0.420698 6.32045 1.74353 3.07913 10.569 -0.683173 -1.96822 3.94255 1.53615 -0.480275 -1.41328 -6.35695 0.491877 0.269123 5.78288 2.67041 14.7669 -1.9137 0.4712 1.41544 11.9875 -4.5528 -30.9595 -2.7574 0.559239 -2.95593 9.34784 9.44593e-010 3.10263e-010 1.53874e-009 -1.61819 4.34595 -0.52102 0.00985377 -0.632441 8.2663 0.67378 1.73903 -5.76588 -43.5637 17.2068 69.488 6.49668 -1.88868 -8.77453 -62.6786 -49.9443 -53.0634 6.67255 1.63426 -7.01703 3.6937e-010 1.6659e-009 -1.69979e-009 0.00110435 3.98902 0.700157 5.19164 -1.25167 7.76749 -1.34279 4.97738 0.598915 17.2888 22.2546 3.20024 
21.3142 37.2072 -0.0547781 -6.68761 -8.8056 85.3855 0.321227 0.387889 3.39282 16.7384 -29.1129 27.9642 2.48674 -16.6781 -7.53634 48.9295 70.2253 1.08681 -0.0389695 -17.5351 3.83666 4.52333 1.57075 0.0702097 -0.414809 -0.585482 -3.35411 16.1546 -26.9398 69.3864 3.09698 -17.8901 -3.3902 37.199 14.2456 -70.6972 0.278209 -9.98205 14.9159 9.80271 -10.6358 1.29475 -0.631815 4.47129 -0.702355 11.4672 -17.3108 0.21284 -0.420698 6.32045 1.74353 1.66264 10.3921 0.445326 -1.96822 3.94255 1.53615 -1.16506 -1.3813 -5.95668 0.491877 0.269123 5.78288 2.57902 16.7692 4.06647 0.4712 1.41544 11.9875 -4.98052 -25.613 -1.46516 0.559239 -2.95593 9.34784 9.44593e-010 3.10263e-010 1.53874e-009 -1.61819 4.34595 -0.52102 -0.638323 -0.71545 8.49103 0.67378 1.73903 -5.76588 -42.9885 14.8557 69.5914 6.49668 -1.88868 -8.77453 -63.2701 -49.7999 -53.5658 6.67255 1.63426 -7.01703 3.6937e-010 1.6659e-009 -1.69979e-009 0.00110435 3.98902 0.700157 4.46757 -1.93224 8.07684 -1.34279 4.97738 0.598915 17.0024 22.5492 3.27656 
